REM DIRINDEX 1\2,1\3,1\4,1\5
REM DIRNAME "folder01","folder02","folder03","folder04","folder05"
TITLE ""
FILE "1Q_j_2184-2200.mp3" MP3
  TRACK 01 AUDIO
    TITLE "0:"
    INDEX 01 00:00:00
  TRACK 02 AUDIO
    TITLE "3:cjc172_0252"
    INDEX 01 00:00:08
  TRACK 03 AUDIO
    TITLE "0:"
    INDEX 01 00:01:72
  TRACK 04 AUDIO
    TITLE "4:cjc172_0253"
    INDEX 01 00:02:09
  TRACK 05 AUDIO
    TITLE "0:"
    INDEX 01 00:04:49
  TRACK 06 AUDIO
    TITLE "5:cjc172_0254"
    INDEX 01 00:04:59
  TRACK 07 AUDIO
    TITLE "0:"
    INDEX 01 00:10:69
  TRACK 08 AUDIO
    TITLE "3:cjc172_0255"
    INDEX 01 00:11:43
  TRACK 09 AUDIO
    TITLE "0:"
    INDEX 01 00:12:68
  TRACK 10 AUDIO
    TITLE "4:cjc172_0256"
    INDEX 01 00:13:01
  TRACK 11 AUDIO
    TITLE "0:"
    INDEX 01 00:15:14
  TRACK 12 AUDIO
    TITLE "5:cjc172_0257"
    INDEX 01 00:15:24
  TRACK 13 AUDIO
    TITLE "0:"
    INDEX 01 00:21:40
  TRACK 14 AUDIO
    TITLE "3:cjc172_0258"
    INDEX 01 00:22:12
  TRACK 15 AUDIO
    TITLE "0:"
    INDEX 01 00:23:35
  TRACK 16 AUDIO
    TITLE "4:cjc172_0259"
    INDEX 01 00:23:47
  TRACK 17 AUDIO
    TITLE "0:"
    INDEX 01 00:25:57
  TRACK 18 AUDIO
    TITLE "5:cjc172_0260"
    INDEX 01 00:25:65
  TRACK 19 AUDIO
    TITLE "0:"
    INDEX 01 00:31:07
  TRACK 20 AUDIO
    TITLE "3:cjc172_0261"
    INDEX 01 00:31:54
  TRACK 21 AUDIO
    TITLE "0:"
    INDEX 01 00:33:00
  TRACK 22 AUDIO
    TITLE "4:cjc172_0262"
    INDEX 01 00:33:08
  TRACK 23 AUDIO
    TITLE "0:"
    INDEX 01 00:35:26
  TRACK 24 AUDIO
    TITLE "5:cjc172_0263"
    INDEX 01 00:35:32
  TRACK 25 AUDIO
    TITLE "0:"
    INDEX 01 00:40:02
  TRACK 26 AUDIO
    TITLE "3:cjc172_0264"
    INDEX 01 00:40:47
  TRACK 27 AUDIO
    TITLE "0:"
    INDEX 01 00:42:30
  TRACK 28 AUDIO
    TITLE "4:cjc172_0265"
    INDEX 01 00:42:40
  TRACK 29 AUDIO
    TITLE "0:"
    INDEX 01 00:44:06
  TRACK 30 AUDIO
    TITLE "5:cjc172_0266"
    INDEX 01 00:44:12
  TRACK 31 AUDIO
    TITLE "0:"
    INDEX 01 00:49:46
  TRACK 32 AUDIO
    TITLE "3:cjc172_0267"
    INDEX 01 00:50:18
  TRACK 33 AUDIO
    TITLE "0:"
    INDEX 01 00:51:68
  TRACK 34 AUDIO
    TITLE "4:cjc172_0268"
    INDEX 01 00:52:05
  TRACK 35 AUDIO
    TITLE "0:"
    INDEX 01 00:53:67
  TRACK 36 AUDIO
    TITLE "5:cjc172_0269"
    INDEX 01 00:53:73
  TRACK 37 AUDIO
    TITLE "0:"
    INDEX 01 00:58:59
  TRACK 38 AUDIO
    TITLE "3:cjc172_0270"
    INDEX 01 00:59:29
  TRACK 39 AUDIO
    TITLE "0:"
    INDEX 01 01:00:56
  TRACK 40 AUDIO
    TITLE "4:cjc172_0271"
    INDEX 01 01:00:65
  TRACK 41 AUDIO
    TITLE "0:"
    INDEX 01 01:02:47
  TRACK 42 AUDIO
    TITLE "5:cjc172_0272"
    INDEX 01 01:02:54
  TRACK 43 AUDIO
    TITLE "0:"
    INDEX 01 01:08:16
  TRACK 44 AUDIO
    TITLE "3:cjc172_0273"
    INDEX 01 01:08:61
  TRACK 45 AUDIO
    TITLE "0:"
    INDEX 01 01:10:23
  TRACK 46 AUDIO
    TITLE "4:cjc172_0274"
    INDEX 01 01:10:31
  TRACK 47 AUDIO
    TITLE "0:"
    INDEX 01 01:13:33
  TRACK 48 AUDIO
    TITLE "5:cjc172_0275"
    INDEX 01 01:13:43
  TRACK 49 AUDIO
    TITLE "0:"
    INDEX 01 01:20:07
  TRACK 50 AUDIO
    TITLE "3:cjc172_0276"
    INDEX 01 01:20:54
  TRACK 51 AUDIO
    TITLE "0:"
    INDEX 01 01:22:00
  TRACK 52 AUDIO
    TITLE "4:cjc172_0277"
    INDEX 01 01:22:10
  TRACK 53 AUDIO
    TITLE "0:"
    INDEX 01 01:24:23
  TRACK 54 AUDIO
    TITLE "5:cjc172_0278"
    INDEX 01 01:24:31
  TRACK 55 AUDIO
    TITLE "0:"
    INDEX 01 01:28:72
  TRACK 56 AUDIO
    TITLE "3:cjc172_0279"
    INDEX 01 01:29:45
  TRACK 57 AUDIO
    TITLE "0:"
    INDEX 01 01:30:59
  TRACK 58 AUDIO
    TITLE "4:cjc172_0280"
    INDEX 01 01:30:68
  TRACK 59 AUDIO
    TITLE "0:"
    INDEX 01 01:32:09
  TRACK 60 AUDIO
    TITLE "5:cjc172_0281"
    INDEX 01 01:32:18
  TRACK 61 AUDIO
    TITLE "0:"
    INDEX 01 01:36:12
  TRACK 62 AUDIO
    TITLE "3:cjc172_0282"
    INDEX 01 01:36:59
  TRACK 63 AUDIO
    TITLE "0:"
    INDEX 01 01:38:03
  TRACK 64 AUDIO
    TITLE "4:cjc172_0283"
    INDEX 01 01:38:13
  TRACK 65 AUDIO
    TITLE "0:"
    INDEX 01 01:42:01
  TRACK 66 AUDIO
    TITLE "5:cjc172_0284"
    INDEX 01 01:42:09
  TRACK 67 AUDIO
    TITLE "0:"
    INDEX 01 01:48:19
  TRACK 68 AUDIO
    TITLE "3:cjc172_0285"
    INDEX 01 01:48:66
  TRACK 69 AUDIO
    TITLE "0:"
    INDEX 01 01:50:20
  TRACK 70 AUDIO
    TITLE "4:cjc172_0286"
    INDEX 01 01:50:30
  TRACK 71 AUDIO
    TITLE "0:"
    INDEX 01 01:52:45
  TRACK 72 AUDIO
    TITLE "5:cjc172_0287"
    INDEX 01 01:52:50
  TRACK 73 AUDIO
    TITLE "0:"
    INDEX 01 01:58:31
  TRACK 74 AUDIO
    TITLE "3:cjc172_0288"
    INDEX 01 01:59:04
  TRACK 75 AUDIO
    TITLE "0:"
    INDEX 01 02:00:21
  TRACK 76 AUDIO
    TITLE "4:cjc172_0289"
    INDEX 01 02:00:32
  TRACK 77 AUDIO
    TITLE "0:"
    INDEX 01 02:03:05
  TRACK 78 AUDIO
    TITLE "5:cjc172_0290"
    INDEX 01 02:03:13
  TRACK 79 AUDIO
    TITLE "0:"
    INDEX 01 02:07:64
  TRACK 80 AUDIO
    TITLE "3:cjc172_0291"
    INDEX 01 02:08:36
  TRACK 81 AUDIO
    TITLE "0:"
    INDEX 01 02:09:61
  TRACK 82 AUDIO
    TITLE "4:cjc172_0292"
    INDEX 01 02:09:70
  TRACK 83 AUDIO
    TITLE "0:"
    INDEX 01 02:11:22
  TRACK 84 AUDIO
    TITLE "5:cjc172_0293"
    INDEX 01 02:11:30
  TRACK 85 AUDIO
    TITLE "0:"
    INDEX 01 02:17:05
  TRACK 86 AUDIO
    TITLE "3:cjc172_0294"
    INDEX 01 02:17:52
  TRACK 87 AUDIO
    TITLE "0:"
    INDEX 01 02:19:04
  TRACK 88 AUDIO
    TITLE "4:cjc172_0295"
    INDEX 01 02:19:12
  TRACK 89 AUDIO
    TITLE "0:"
    INDEX 01 02:21:05
  TRACK 90 AUDIO
    TITLE "5:cjc172_0296"
    INDEX 01 02:21:11
  TRACK 91 AUDIO
    TITLE "0:"
    INDEX 01 02:25:48
  TRACK 92 AUDIO
    TITLE "3:cjc172_0297"
    INDEX 01 02:26:18
  TRACK 93 AUDIO
    TITLE "0:"
    INDEX 01 02:27:49
  TRACK 94 AUDIO
    TITLE "4:cjc172_0298"
    INDEX 01 02:27:59
  TRACK 95 AUDIO
    TITLE "0:"
    INDEX 01 02:30:00
  TRACK 96 AUDIO
    TITLE "5:cjc172_0299"
    INDEX 01 02:30:06
  TRACK 97 AUDIO
    TITLE "0:"
    INDEX 01 02:34:35
  TRACK 98 AUDIO
    TITLE "3:cjc172_0300"
    INDEX 01 02:35:07
  TRACK 99 AUDIO
    TITLE "0:"
    INDEX 01 02:36:28
  TRACK 100 AUDIO
    TITLE "4:cjc172_0301"
    INDEX 01 02:36:38
  TRACK 101 AUDIO
    TITLE "0:"
    INDEX 01 02:38:15
  TRACK 102 AUDIO
    TITLE "5:cjc172_0302"
    INDEX 01 02:38:25
  TRACK 103 AUDIO
    TITLE "0:"
    INDEX 01 02:42:39
